<svg id="logo" xmlns="http://www.w3.org/2000/svg" width="189" height="189" viewBox="0 0 189 189">
  <path id="Subtraction_1" data-name="Subtraction 1" d="M94.5,189A94.525,94.525,0,0,1,57.717,7.426a94.524,94.524,0,0,1,77.4,172.425,93.7,93.7,0,0,1-34.7,8.966C90.222,176.71,82.733,165.031,78.156,154.1c-6.239-14.895-6.821-27.979-1.729-38.891,4.236-9.077,7.974-20.545,11.932-32.686,1.634-5.013,3.324-10.2,5.044-15.17,6.506.055,13.028.343,19.694.659l1.216.058c6.594.314,12.822.611,18.335.611,13.124,0,19.589-1.772,21.616-5.925,2-4.089-.6-10.644-7.932-20.039-4.477-5.737-8.773-10.047-12.767-12.81-3.761-2.6-7.384-3.922-10.767-3.922-13.26,0-21.964,19.883-29.395,41.369-.662-.005-1.378-.009-2.124-.009-18.843,0-41.827,1.909-52.391,16.8C30.043,96.6,33.415,114.455,48.908,137.2c13.344,19.588,33.161,38.973,47.435,51.785C95.672,188.995,95.07,189,94.5,189Z" fill="#ff004e"/>
</svg>
